<svg width="73" height="71" viewBox="0 0 73 71" fill="none" xmlns="http://www.w3.org/2000/svg">
<path d="M64.0953 21.9541C63.0779 17.6641 58.7878 14.6144 54.4175 14.9786V14.1465C54.4175 13.4013 54.0921 12.6975 53.4998 12.1674C51.6724 10.5265 47.5197 10.7832 45.8205 10.9659L21.1016 13.6618L17.7279 11.763L45.017 8.92848C46.0849 8.81701 46.8613 7.8618 46.7498 6.79383C46.6397 5.72585 45.687 4.95857 44.6152 5.06096L13.1567 8.32839C12.9959 7.91364 12.7108 7.55074 12.3103 7.32522L11.5793 6.91436L39.5281 3.87634C40.596 3.7597 41.3672 2.8006 41.2505 1.73392C41.1352 0.667243 40.1709 -0.103926 39.1081 0.0114252L4.58177 3.76488C4.15406 3.81154 3.7782 3.99818 3.48399 4.26776C1.67206 4.94432 0.166016 6.869 0.166016 10.301V45.8785C0.166016 50.1504 2.63246 54.8824 5.77935 56.6528L10.4025 59.2541C10.6993 59.42 11.0272 59.5029 11.3551 59.5029C11.4069 59.5029 11.4562 59.4861 11.508 59.4822C12.4801 61.1295 13.7217 62.5111 15.115 63.294L19.7369 65.8939C20.0324 66.0598 20.3616 66.1428 20.6895 66.1428C21.0291 66.1428 21.3686 66.0546 21.6706 65.8771C22.2668 65.5271 22.6336 64.8895 22.6336 64.1986V29.7747L29.4912 63.2084C30.3323 67.3118 33.6477 70.4056 37.2016 70.4056C37.4997 70.4056 37.7991 70.3835 38.0985 70.3408L43.2193 69.5929C43.24 69.5903 43.2582 69.5813 43.2776 69.5774C43.2958 69.5748 43.3139 69.5761 43.3321 69.5722L65.5897 64.9633C67.8034 64.5045 69.6827 63.2136 70.8829 61.3291C72.0844 59.442 72.4576 57.192 71.9353 54.99L64.0953 21.9541ZM9.41227 54.2356L7.68589 53.2649C5.75213 52.1775 4.05426 48.726 4.05426 45.8785V10.301C4.05426 8.93236 4.47549 7.8605 5.01207 7.8605C5.21556 7.8605 5.48773 7.95123 5.78065 8.11583L9.41227 10.1572V54.2356ZM18.7467 60.8781L17.0216 59.9073C15.0865 58.8186 13.39 55.3671 13.39 52.5209V16.9435C13.39 15.5748 13.8112 14.5029 14.3478 14.5029C14.5512 14.5029 14.8247 14.5924 15.115 14.757L18.7467 16.7996V60.8781ZM22.6349 24.8353V17.4074L46.2405 14.8334C48.3479 14.6066 49.8164 14.7686 50.5292 14.9514V15.4672L32.791 17.7807C32.7353 17.7885 32.6834 17.8066 32.629 17.8183C32.5849 17.8287 32.5409 17.83 32.4968 17.8416L27.5497 19.2842C25.0949 20.0022 23.3102 22.1563 22.6349 24.8353ZM37.536 66.4927C35.702 66.7545 33.8007 64.87 33.2991 62.4256L26.3521 28.5538C25.8414 26.064 26.8887 23.5289 28.6384 23.0182L31.5623 22.1654L40.6155 66.043L37.536 66.4927ZM67.6038 59.2411C66.9726 60.2326 65.9772 60.9131 64.8017 61.1567L44.4493 65.3703L35.3702 21.3657L54.5328 18.8655C57.0692 18.5337 59.721 20.3586 60.312 22.8536L68.1533 55.8895C68.4294 57.0585 68.235 58.2483 67.6038 59.2411Z" fill="#FFED47" fill-opacity="0.8"/>
<path d="M57.1011 24.1419C56.8509 23.1556 55.8802 22.527 54.8822 22.7058L40.0031 25.3058C39.4873 25.3952 39.0298 25.6907 38.7343 26.1223C38.4375 26.5552 38.3299 27.0879 38.4323 27.6024L40.4555 37.7145C40.6395 38.636 41.4483 39.2775 42.3594 39.2775C42.4605 39.2775 42.5629 39.2698 42.6666 39.2529L58.1237 36.7968C58.6628 36.7113 59.1424 36.4015 59.4418 35.9466C59.7425 35.4904 59.8371 34.9292 59.7036 34.3991L57.1011 24.1419ZM43.8992 35.1184L42.6342 28.7922L53.7753 26.8455L55.4097 33.2909L43.8992 35.1184Z" fill="#FFED47" fill-opacity="0.8"/>
</svg>
