<svg width="72" height="72" viewBox="0 0 72 72" fill="none" xmlns="http://www.w3.org/2000/svg">
<g clipPath="url(#clip0_319_4234)">
<path d="M65.7156 2.35797H31.1423C30.2805 2.35797 29.582 3.05645 29.582 3.9182V16.0753L31.3124 15.001C31.7527 14.7275 32.223 14.543 32.7024 14.4416V5.47843H64.1552V27.9806H32.7025V24.3399L29.582 26.2774V29.541C29.582 30.4028 30.2805 31.1012 31.1423 31.1012H65.7156C66.5772 31.1012 67.2758 30.4028 67.2758 29.541V3.9182C67.2758 3.05645 66.5772 2.35797 65.7156 2.35797Z" fill="#9747FF" fill-opacity="0.72"/>
<path d="M43.0305 11.0188C42.62 10.4982 41.8654 10.4092 41.345 10.8194L35.9707 15.0568C36.4838 15.3922 36.934 15.8415 37.2787 16.3966C37.3764 16.5536 37.4612 16.7152 37.5366 16.8791L42.8312 12.7043C43.3518 12.294 43.441 11.5393 43.0305 11.0188Z" fill="#9747FF" fill-opacity="0.72"/>
<path d="M17.0905 8.9817C19.5707 8.9817 21.5813 6.97108 21.5813 4.49085C21.5813 2.01062 19.5707 0 17.0905 0C14.6102 0 12.5996 2.01062 12.5996 4.49085C12.5996 6.97108 14.6102 8.9817 17.0905 8.9817Z" fill="#9747FF" fill-opacity="0.72"/>
<path d="M35.4382 17.5398C34.807 16.5233 33.4713 16.2108 32.4545 16.8419L28.0661 19.5665C28.0478 15.9273 28.0575 17.8586 28.0459 15.515C28.0317 12.7018 25.7315 10.413 22.9181 10.413H20.7864C18.9652 15.1363 19.5519 13.383 18.006 17.3922L18.6561 14.5613C18.7011 14.3492 18.6685 14.1281 18.564 13.9383L17.6831 12.3361L18.4648 10.9146C18.5814 10.7025 18.4277 10.4426 18.1857 10.4426H16.0382C15.7963 10.4426 15.6424 10.7025 15.7591 10.9146L16.5424 12.3391L15.6598 13.9442C15.5574 14.1305 15.524 14.3471 15.5653 14.5555L16.1285 17.3922C15.8249 16.6048 13.7261 11.1617 13.4374 10.413H11.2625C8.44927 10.413 6.14893 12.7016 6.13473 15.515L6.05471 31.4337C6.04881 32.6304 7.01391 33.6054 8.21063 33.6114C8.21443 33.6114 8.21794 33.6114 8.22174 33.6114C9.41325 33.6114 10.3823 32.6484 10.3882 31.4555L10.4682 15.5368C10.4682 15.5342 10.4682 15.5317 10.4682 15.5293C10.4716 15.2931 10.665 15.1038 10.9012 15.1056C11.1375 15.1073 11.3279 15.2994 11.3279 15.5356L11.3288 38.0892C13.3125 38.0048 15.1505 38.7203 16.5293 39.9768V31.1782H17.6519V41.2712C18.4426 42.4339 18.9054 43.8367 18.9054 45.3457C18.9054 46.7206 18.5212 48.0075 17.8551 49.1047C18.5394 49.108 19.204 49.1988 19.8378 49.3664C20.6922 48.6252 21.72 48.0796 22.8523 47.8005C22.8523 8.51804 22.8052 32.8061 22.8052 15.5386C22.8052 15.2884 23.0076 15.0856 23.2577 15.0852C23.5079 15.0847 23.7111 15.2866 23.7122 15.5368C23.7198 17.0565 23.7437 21.8072 23.752 23.4611C23.756 24.2457 24.1838 24.9669 24.8704 25.3465C25.5558 25.7253 26.3941 25.7056 27.0618 25.2911L34.7405 20.5235C35.7569 19.8925 36.0695 18.5564 35.4382 17.5398Z" fill="#9747FF" fill-opacity="0.72"/>
<path d="M60.359 50.1516C62.9843 50.1516 65.1125 48.0233 65.1125 45.398C65.1125 42.7727 62.9843 40.6445 60.359 40.6445C57.7337 40.6445 55.6055 42.7727 55.6055 45.398C55.6055 48.0233 57.7337 50.1516 60.359 50.1516Z" fill="#9747FF" fill-opacity="0.72"/>
<path d="M71.923 57.0671C71.908 54.0892 69.4732 51.6665 66.4952 51.6665C65.2103 51.6665 55.7257 51.6665 54.5729 51.6665C55.0843 52.6604 55.375 53.7856 55.375 54.9782C55.375 56.2445 55.0368 57.5675 54.3203 58.7444C56.9787 58.8519 59.308 60.2786 60.6694 62.3862H66.3758V57.1226C66.3758 56.8636 66.5811 56.6512 66.84 56.6424C67.0989 56.6335 67.3184 56.8315 67.3358 57.0898C67.3358 57.0898 67.3358 57.09 67.3358 57.0901L67.3626 62.3862H71.9499L71.923 57.0671Z" fill="#9747FF" fill-opacity="0.72"/>
<path d="M40.8479 54.9781C40.8479 53.7646 41.1486 52.6208 41.6768 51.6143C38.5818 51.6143 34.9476 51.6143 31.0924 51.6143C31.5806 52.5901 31.857 53.6894 31.857 54.8528C31.857 56.2198 31.4731 57.5142 30.8066 58.6118C32.9945 58.6222 35.013 59.5312 36.4714 61.04C37.8853 59.6588 39.8125 58.8021 41.9327 58.7907C41.1966 57.6021 40.8479 56.2676 40.8479 54.9781Z" fill="#9747FF" fill-opacity="0.72"/>
<path d="M37.24 40.592C34.6148 40.592 32.4863 42.72 32.4863 45.3456C32.4863 47.9651 34.6107 50.0991 37.24 50.0991C39.8441 50.0991 41.9935 47.9947 41.9935 45.3456C41.9935 42.7229 39.8694 40.592 37.24 40.592Z" fill="#9747FF" fill-opacity="0.72"/>
<path d="M17.3265 54.8528C17.3265 53.6923 17.6016 52.5953 18.0875 51.6212C17.8826 51.6111 18.7445 51.6143 5.50366 51.6143C2.54098 51.6143 0.0908749 54.0243 0.0758281 57.0149L0.0488281 62.3862C2.14512 62.3862 2.56685 62.3862 4.63615 62.3862L4.66301 57.0381C4.66441 56.7731 4.87971 56.5597 5.14437 56.5604C5.40902 56.5612 5.62305 56.7758 5.62305 57.0405V62.3862H12.0534C13.4393 60.1708 15.8221 58.7797 18.4157 58.6728C17.7117 57.5391 17.3265 56.2309 17.3265 54.8528Z" fill="#9747FF" fill-opacity="0.72"/>
<path d="M11.6422 40.592C9.01703 40.592 6.88867 42.7203 6.88867 45.3456C6.88867 47.959 9.00451 50.0991 11.6422 50.0991C14.2488 50.0991 16.3959 47.9876 16.3959 45.3456C16.3959 42.7201 14.2675 40.592 11.6422 40.592Z" fill="#9747FF" fill-opacity="0.72"/>
<path d="M59.419 66.629C59.4042 63.6509 56.9693 61.2282 53.9913 61.2282C53.6754 61.2282 42.3238 61.2282 41.9669 61.2282C38.989 61.2282 36.398 63.6507 36.3829 66.6287L36.3443 66.5035C36.3295 63.5374 33.9057 61.1029 30.9166 61.1029C27.4651 61.1029 22.5079 61.1029 18.8922 61.1029C15.9143 61.1029 13.3233 63.5254 13.3083 66.5035L13.2812 71.9999H17.8686L17.8954 66.5265C17.8966 66.2984 18.082 66.1145 18.31 66.115C18.5379 66.1156 18.7223 66.3007 18.7223 66.5286V72C21.4112 72 28.3527 72 30.8712 72V66.5286C30.8712 66.2845 31.0687 66.0865 31.3129 66.0858C31.5568 66.0852 31.7557 66.2822 31.7569 66.5264L31.7838 71.9999C32.7216 71.9999 39.9735 71.9999 40.9433 71.9999L40.9701 66.6518C40.9701 66.6518 40.9701 66.6517 40.9701 66.6515C40.9714 66.4236 41.1569 66.2398 41.3848 66.2403C41.6128 66.2409 41.797 66.426 41.797 66.6539V71.9999C44.4859 71.9999 51.4274 71.9999 53.9458 71.9999V66.6539C53.9458 66.4098 54.1434 66.2118 54.3875 66.2111C54.6315 66.2105 54.8304 66.4075 54.8316 66.6517L54.8585 71.9998H59.4458L59.419 66.629Z" fill="#9747FF" fill-opacity="0.72"/>
<path d="M24.7407 59.6433C27.3967 59.6433 29.5498 57.4902 29.5498 54.8342C29.5498 52.1783 27.3967 50.0251 24.7407 50.0251C22.0847 50.0251 19.9316 52.1783 19.9316 54.8342C19.9316 57.4902 22.0847 59.6433 24.7407 59.6433Z" fill="#9747FF" fill-opacity="0.72"/>
<path d="M48.104 59.7682C50.76 59.7682 52.9131 57.6151 52.9131 54.9591C52.9131 52.3031 50.76 50.15 48.104 50.15C45.448 50.15 43.2949 52.3031 43.2949 54.9591C43.2949 57.6151 45.448 59.7682 48.104 59.7682Z" fill="#9747FF" fill-opacity="0.72"/>
</g>
<defs>
<clipPath id="clip0_319_4234">
<rect width="72" height="72" fill="white"/>
</clipPath>
</defs>
</svg>
